<?xml version="1.0" encoding="UTF-8"?>
<svg width="1200pt" height="1200pt" version="1.1" viewBox="0 0 1200 1200" xmlns="http://www.w3.org/2000/svg">
 <g fill="#393939">
  <path d="m300 703.12c-22.375 0.003906-43.832 8.8984-59.652 24.723-15.82 15.824-24.707 37.285-24.703 59.66 0 22.379 8.8906 43.836 24.715 59.656 15.824 15.824 37.285 24.711 59.66 24.711s43.836-8.8867 59.656-24.711c15.824-15.82 24.715-37.277 24.719-59.656-0.027343-22.371-8.9258-43.824-24.746-59.641-15.824-15.82-37.273-24.719-59.648-24.742zm0 131.25c-12.43-0.003906-24.352-4.9492-33.141-13.742-8.7852-8.793-13.719-20.719-13.715-33.148 0.003907-12.43 4.9453-24.352 13.738-33.141 8.793-8.7852 20.719-13.723 33.148-13.719s24.352 4.9453 33.141 13.738 13.723 20.715 13.723 33.145c-0.015625 12.434-4.9609 24.348-13.754 33.137-8.7891 8.7852-20.711 13.723-33.141 13.73z"/>
  <path d="m318.76 787.5c0 10.355-8.3945 18.75-18.75 18.75-10.355 0-18.75-8.3945-18.75-18.75s8.3945-18.75 18.75-18.75c10.355 0 18.75 8.3945 18.75 18.75"/>
  <path d="m1174.9 1105.4-148.56-331.38c-6.8906-26.914-23.512-50.32-46.648-65.699 6.625-9.875 9.9023-21.621 9.3477-33.5l-1.9766-31.941c-0.94531-13.676-6.8516-26.535-16.613-36.164-9.7578-9.625-22.699-15.355-36.387-16.113h-198.87l-75.703-218.24c-16.02-45.023-54.508-78.324-101.37-87.703-8.4414 12.797-18.688 24.309-30.426 34.176 20.926-0.47656 41.473 5.6133 58.754 17.418 17.285 11.805 30.438 28.723 37.605 48.387l71.441 205.96h-36.09l-27.996-66.895h-0.003907c-2.5938-6.1641-8.2812-10.48-14.918-11.324-6.6367-0.84375-13.223 1.9102-17.277 7.2305-4.0586 5.3242-4.9727 12.402-2.4023 18.578l32.82 78.402h0.003906c1.4297 3.4062 3.832 6.3164 6.9062 8.3672 3.0781 2.0469 6.6914 3.1367 10.387 3.1406h286.95c4.1328 0.74219 7.9102 2.8125 10.754 5.8984 2.8477 3.0898 4.6055 7.0195 5.0117 11.199l1.9766 31.934c0.36719 6.0898-4.4023 16.594-11.691 16.594h-354.78l-85.234-185.93c-2.0664-4.5312-5.8477-8.0586-10.516-9.7969-4.6641-1.7383-9.832-1.5508-14.359 0.52344-4.5273 2.0742-8.043 5.8672-9.7734 10.535-1.7305 4.6719-1.5312 9.8398 0.55469 14.359l78.074 170.31h-95.809l-86.977-252.14c0.17578-14.242 3.5312-28.266 9.8242-41.043 9.4727-19.16 24.777-34.824 43.707-44.742-16.59-1.1133-32.906-4.832-48.348-11.008-10.645 10.113-19.613 21.852-26.578 34.777l-102.05-295.81c-7.5352-24.352-22.699-45.637-43.246-60.723-20.551-15.082-45.398-23.168-70.891-23.062-1.9219 0-85.832 0.10547-85.996 0.10547-5.4336 0.082031-10.57 2.4883-14.113 6.6055-3.5469 4.1172-5.1602 9.5547-4.4336 14.941 12.27 81.328 122.29 807.16 123.55 811.54h-0.003906c5.3008 34.121 22.574 65.242 48.723 87.789 26.152 22.547 59.473 35.051 94 35.273l14.797 0.078125v224.92c0 6.6992 3.5742 12.887 9.375 16.238 5.8008 3.3477 12.949 3.3477 18.75 0 5.8008-3.3516 9.375-9.5391 9.375-16.238v-227.01c14.828-1.9531 28.898-7.7227 40.832-16.738h52.906v243.75c0 6.6992 3.5742 12.887 9.375 16.238 5.8047 3.3477 12.949 3.3477 18.75 0 5.8047-3.3516 9.375-9.5391 9.375-16.238v-112.5h356.28v112.5c0 6.6992 3.5742 12.887 9.375 16.238 5.8008 3.3477 12.949 3.3477 18.75 0 5.8008-3.3516 9.375-9.5391 9.375-16.238v-243.75h93.758v243.75h0.003906c0 6.6992 3.5742 12.887 9.375 16.238 5.8008 3.3477 12.949 3.3477 18.75 0 5.8008-3.3516 9.375-9.5391 9.375-16.238v-114.59l46.27 99.887c6.4688 14.176 18.457 25.086 33.18 30.191 14.715 5.082 30.844 4.1484 44.879-2.5977 0 0 32.777-12.141 33.406-12.449 27.73-13.91 37.344-45.289 23.348-76.273zm-349.84-74.168h-356.28v-93.75h356.28zm-453.61-131.25c-4.8086-0.003906-9.4336 1.8398-12.918 5.1484-18.777 17.867-49.586 13.723-73.289 13.602-20.508-0.17188-40.539-6.1797-57.754-17.324s-30.898-26.965-39.445-45.605c-5.4062-13.172-9.2227-26.945-11.371-41.02-1.3203-8.2578-98.219-650.37-117.35-777.2h37.133c0.78125 1.3633 1.7422 2.6211 2.8555 3.7344 3.4766 3.5586 8.2461 5.5547 13.219 5.5352 4.9883-0.019531 9.7656-2.0078 13.293-5.5352 1.0703-1.0977 1.9961-2.3242 2.7578-3.6523 16.801 0.89453 32.91 6.9883 46.098 17.434 13.191 10.445 22.809 24.73 27.527 40.879l214.78 622.61 0.003906 0.003907c1.2695 3.6875 3.6602 6.8867 6.8359 9.1484 3.1758 2.2656 6.9766 3.4844 10.879 3.4844h503.91c5.2461 0.79297 43.477 8.6328 54.648 65.625h-121.32c-6.6992 0-12.891 3.5742-16.238 9.375-3.3516 5.8008-3.3516 12.949 0 18.75 3.3477 5.8008 9.5391 9.375 16.238 9.375h121.88v65.625zm764.08 247.75s-32.539 12.051-33.152 12.359c-4.9688 2.5977-10.773 3.0742-16.098 1.3203-5.3242-1.7539-9.7148-5.5898-12.164-10.629l-80.301-173.37v-39.934h18.75c4.9727 0.003906 9.7422-1.9727 13.258-5.4883 3.5195-3.5195 5.4922-8.2891 5.4922-13.262v-41.906l109.38 243.96c3.293 7.2656 6.875 20.301-5.1641 26.949z"/>
  <path d="m164.06 168.74c0 10.355-8.3945 18.75-18.75 18.75s-18.75-8.3945-18.75-18.75c0-10.355 8.3945-18.75 18.75-18.75s18.75 8.3945 18.75 18.75"/>
  <path d="m147.67 98.426c0 10.355-8.3945 18.75-18.754 18.75-10.355 0-18.75-8.3945-18.75-18.75s8.3945-18.754 18.75-18.754c10.359 0 18.754 8.3984 18.754 18.754"/>
  <path d="m180.48 239.05c0 10.359-8.3945 18.754-18.75 18.754-10.355 0-18.754-8.3945-18.754-18.754 0-10.355 8.3984-18.75 18.754-18.75 10.355 0 18.75 8.3945 18.75 18.75"/>
  <path d="m196.88 309.5c0 10.355-8.3984 18.75-18.754 18.75-10.355 0-18.75-8.3945-18.75-18.75 0-10.359 8.3945-18.754 18.75-18.754 10.355 0 18.754 8.3945 18.754 18.754"/>
  <path d="m425.36 318.75c32.324 0.003906 63.324-12.836 86.184-35.695 22.855-22.855 35.699-53.855 35.699-86.18 0-32.324-12.84-63.328-35.695-86.184-22.855-22.859-53.859-35.699-86.184-35.699s-63.324 12.84-86.184 35.695c-22.855 22.859-35.695 53.859-35.695 86.184 0.035156 32.312 12.887 63.293 35.734 86.141s53.828 35.703 86.141 35.738zm0-206.25c22.375 0 43.836 8.8906 59.66 24.711 15.824 15.824 24.715 37.285 24.715 59.664s-8.8906 43.84-24.715 59.664c-15.824 15.82-37.285 24.711-59.66 24.711-22.379 0-43.84-8.8906-59.664-24.711-15.824-15.824-24.711-37.285-24.711-59.664 0.023437-22.371 8.918-43.816 24.738-59.637 15.816-15.816 37.266-24.715 59.637-24.738z"/>
 </g>
</svg>