<svg width="57" height="57" viewBox="0 0 57 57" fill="none" xmlns="http://www.w3.org/2000/svg">
<g clip-path="url(#clip0_9215_242)">
<g clip-path="url(#clip1_9215_242)">
<path d="M33.7307 56.8279C34.2344 56.8279 34.6425 56.4199 34.6425 55.9161V53.077C34.6425 52.5072 34.565 51.9373 34.4134 51.3834C33.9837 49.8174 33.7364 48.4782 33.7364 47.71C33.7364 46.6284 35.5885 42.3053 39.679 40.6299C40.3503 40.3552 40.9635 39.9734 41.5003 39.4947L47.6378 34.0399C48.1427 33.5909 48.8596 33.4963 49.4637 33.7983L49.4876 33.8108C49.8068 33.9704 50.0507 34.2576 50.1567 34.5984C50.2535 34.9107 50.2296 35.2526 50.0917 35.5478L43.0823 43.4587C42.7483 43.836 42.7837 44.4116 43.1598 44.7455C43.537 45.0795 44.1126 45.0441 44.4465 44.668L51.53 36.6727C51.5745 36.6226 51.6144 36.5667 51.6474 36.5075C52.0578 35.7621 52.1489 34.8696 51.897 34.057C51.644 33.2444 51.0628 32.5605 50.3025 32.1799L50.2786 32.1673C49.0032 31.5302 47.4919 31.7297 46.4263 32.6768L40.2888 38.1316C39.9104 38.4678 39.4602 38.7482 38.9872 38.9419C34.4088 40.8168 31.9117 45.7177 31.9117 47.71C31.9117 48.9124 32.3151 50.6334 32.6536 51.8666C32.763 52.2633 32.8177 52.6701 32.8177 53.077V55.9161C32.8177 56.4199 33.2258 56.8279 33.7295 56.8279H33.7307Z" fill="#E3DCD4"/>
<path d="M22.8005 56.8283C23.3043 56.8283 23.7123 56.4202 23.7123 55.9165V53.0774C23.7123 52.6705 23.767 52.2636 23.8765 51.867C24.215 50.6349 24.6184 48.9139 24.6184 47.7115C24.6184 45.7192 22.1213 40.8194 17.5429 38.9434C17.0699 38.7497 16.6197 38.4693 16.2413 38.1331L10.1038 32.6782C9.03815 31.7311 7.52571 31.5317 6.25148 32.1688L6.22755 32.1813C5.46734 32.562 4.88607 33.2458 4.63305 34.0573C4.38002 34.87 4.4712 35.7635 4.88151 36.5078C4.9157 36.5693 4.95559 36.6263 5.00232 36.6776L12.0824 44.6695C12.4164 45.0467 12.9931 45.0809 13.3692 44.747C13.7464 44.413 13.7806 43.8363 13.4467 43.4602L6.43726 35.5493C6.29935 35.2541 6.27542 34.9121 6.37229 34.5999C6.47829 34.2591 6.72219 33.9719 7.04132 33.8123L7.06526 33.7998C7.66932 33.4977 8.38622 33.5923 8.89113 34.0414L15.0286 39.4962C15.5666 39.9737 16.1798 40.3556 16.85 40.6314C20.9405 42.3068 22.7926 46.6298 22.7926 47.7115C22.7926 48.4796 22.5452 49.8188 22.1156 51.3848C21.964 51.9388 21.8865 52.5086 21.8865 53.0785V55.9176C21.8865 56.4214 22.2945 56.8294 22.7983 56.8294L22.8005 56.8283Z" fill="#E3DCD4"/>
<path d="M44.6962 56.8282C45.1999 56.8282 45.608 56.4202 45.608 55.9164V52.8197C45.8496 52.0994 48.0721 49.266 49.8626 46.9831C54.0113 41.6913 56.5312 38.3632 56.5312 36.7687V25.3713C56.5312 24.1141 55.5089 23.0918 54.2518 23.0918C52.5034 23.0918 51.0274 24.4583 50.8895 26.2022L50.2148 34.92C50.2148 34.92 50.2148 34.9292 50.2148 34.9337L50.1966 35.2255C50.1658 35.7281 50.5476 36.1612 51.0502 36.192C51.5494 36.2251 51.986 35.841 52.0167 35.3383L52.035 35.0534L52.7097 26.3435C52.7724 25.5422 53.4505 24.9142 54.2529 24.9142C54.5048 24.9142 54.7088 25.1183 54.7088 25.3701V36.7676C54.7054 36.8781 54.5982 37.5631 52.7519 40.1731C51.5266 41.9055 49.9515 43.9138 48.4277 45.857C44.7178 50.5881 43.7844 51.8931 43.7844 52.7513V55.9153C43.7844 56.419 44.1924 56.827 44.6962 56.827V56.8282Z" fill="#E3DCD4"/>
<path d="M11.8351 56.8283C12.3389 56.8283 12.7469 56.4203 12.7469 55.9166V52.7526C12.7469 51.8933 11.8134 50.5883 8.10358 45.8583C6.57974 43.9151 5.00461 41.9068 3.77939 40.1744C1.93415 37.5644 1.82587 36.8794 1.82245 36.7689V25.3726C1.82245 25.1207 2.02646 24.9167 2.27835 24.9167C3.08073 24.9167 3.75888 25.5447 3.82156 26.3471L4.49629 35.0558L4.51452 35.3408C4.5453 35.8434 4.9784 36.2264 5.48103 36.1944C5.98365 36.1637 6.36547 35.7306 6.33469 35.2279L6.31646 34.9362C6.31646 34.9362 6.31646 34.927 6.31646 34.9225L5.64173 26.2057C5.50496 24.4608 4.02785 23.0942 2.27949 23.0942C1.02235 23.0942 3.24265e-06 24.1166 3.24265e-06 25.3737V36.7712C3.24265e-06 38.3657 2.51998 41.6937 6.66864 46.9855C8.45918 49.2696 10.6805 52.1018 10.9233 52.8222V55.9188C10.9233 56.4226 11.3313 56.8306 11.8351 56.8306V56.8283Z" fill="#E3DCD4"/>
<path d="M23.6007 34.9451C24.6823 34.9451 25.9451 34.1336 25.9451 31.845C25.9451 31.6683 25.9121 31.3412 25.8368 30.6197C25.724 29.5358 25.553 27.898 25.5302 26.7218C25.4915 24.6908 25.7685 23.4451 26.4022 22.7988C26.8102 22.3828 27.4199 22.1799 28.2668 22.1799C29.1136 22.1799 29.7234 22.3817 30.1314 22.7988C30.7651 23.4451 31.042 24.6908 31.0033 26.7218C30.9805 27.898 30.8095 29.5358 30.6967 30.6197C30.6215 31.3412 30.5884 31.6683 30.5884 31.845C30.5884 34.1336 31.8513 34.9451 32.9329 34.9451C35.3662 34.9451 36.9778 33.1146 37.7221 29.5062C38.2976 26.7173 38.2976 23.2741 38.2965 20.5079V20.3564C38.2965 18.5487 38.8094 17.1343 39.4032 15.4953C40.1668 13.388 41.0319 11.0002 41.0319 7.22651C41.0319 4.55381 40.201 2.60371 38.5643 1.42864C37.2593 0.492911 35.7594 0.296875 34.7314 0.296875C33.7581 0.296875 32.5043 0.767589 31.1777 1.2668C30.1143 1.66685 28.9084 2.12046 28.2656 2.12046C27.6228 2.12046 26.4181 1.66685 25.3536 1.2668C24.0269 0.767589 22.7743 0.296875 21.7999 0.296875C20.7707 0.296875 19.2708 0.492911 17.9681 1.42864C16.3302 2.60371 15.5005 4.55495 15.5005 7.22651C15.5005 11.0002 16.3656 13.3891 17.1292 15.4953C17.723 17.1343 18.2359 18.5487 18.2359 20.3564V20.5079C18.2359 23.2741 18.2359 26.7173 18.8103 29.5062C19.5546 33.1158 21.1662 34.9451 23.5995 34.9451H23.6007ZM28.2656 20.3564C26.923 20.3564 25.8574 20.7484 25.0994 21.5212C23.8013 22.8444 23.6736 25.0145 23.7067 26.756C23.7306 28.0097 23.9061 29.6931 24.0224 30.8078C24.068 31.2432 24.1192 31.7378 24.1215 31.8461C24.1215 32.6188 23.9175 33.1203 23.6007 33.1203C23.0616 33.1203 21.4192 33.1203 20.5974 29.1358C20.0595 26.5292 20.0595 23.1898 20.0606 20.5068V20.3552C20.0606 18.2285 19.4702 16.5986 18.8445 14.873C18.0968 12.8113 17.3252 10.6788 17.3252 7.22537C17.3252 3.0049 19.7597 2.11932 21.801 2.11932C22.4438 2.11932 23.6485 2.57294 24.7131 2.97299C26.0397 3.4722 27.2923 3.94291 28.2668 3.94291C29.2413 3.94291 30.4938 3.4722 31.8205 2.97299C32.8839 2.57294 34.0897 2.11932 34.7325 2.11932C36.775 2.11932 39.2083 3.0049 39.2083 7.22537C39.2083 10.6788 38.4356 12.8113 37.689 14.873C37.0633 16.5986 36.4729 18.2285 36.4729 20.3552V20.5068C36.4729 23.1898 36.4729 26.5292 35.9361 29.1358C35.1143 33.1203 33.472 33.1203 32.9329 33.1203C32.616 33.1203 32.412 32.6188 32.412 31.8438C32.4143 31.7367 32.4656 31.2432 32.5112 30.8078C32.6274 29.6931 32.8029 28.0086 32.8269 26.756C32.8611 25.0133 32.7323 22.8444 31.4341 21.5212C30.6762 20.7484 29.6105 20.3564 28.2679 20.3564H28.2656Z" fill="#E3DCD4"/>
<path d="M36.2233 8.13853C36.7271 8.13853 37.1351 7.7305 37.1351 7.22674C37.1351 6.72297 37.1055 6.34799 37.0439 6.01747C36.9527 5.52168 36.4786 5.19458 35.9817 5.28575C35.4859 5.37693 35.1588 5.85221 35.25 6.34799C35.2899 6.56569 35.3104 6.86202 35.3104 7.22674C35.3104 7.7305 35.7184 8.13853 36.2222 8.13853H36.2233Z" fill="#E3DCD4"/>
<path d="M33.8435 17.0407C34.2356 17.0407 34.5969 16.7866 34.7166 16.3922C34.9878 15.4941 35.3218 14.6758 35.6454 13.8836C35.8346 13.4198 36.0295 12.9434 36.2062 12.4658C36.3806 11.9928 36.1389 11.4685 35.666 11.2953C35.193 11.1209 34.6687 11.3637 34.4954 11.8355C34.3302 12.2835 34.1501 12.7245 33.9586 13.1918C33.6178 14.025 33.2668 14.8843 32.9705 15.8657C32.8246 16.3478 33.0981 16.8561 33.5802 17.002C33.668 17.0282 33.7569 17.0407 33.8435 17.0407Z" fill="#E3DCD4"/>
</g>
</g>
<defs>
<clipPath id="clip0_9215_242">
<rect width="56.5312" height="56.5312" fill="white" transform="matrix(-1 0 0 1 56.5312 0.296875)"/>
</clipPath>
<clipPath id="clip1_9215_242">
<rect width="56.5312" height="56.5312" fill="white" transform="matrix(-1 0 0 1 56.5312 0.296875)"/>
</clipPath>
</defs>
</svg>