<svg width="63" height="61" viewBox="0 0 63 61" fill="none" xmlns="http://www.w3.org/2000/svg">
<path d="M18.8281 19.4106C19.6938 19.6063 20.5378 19.8877 21.3477 20.2505C22.3079 20.7063 23.2267 21.2444 24.094 21.8588C25.1564 22.5013 26.9201 23.0598 29.9352 22.5097" stroke="#FFFFFF" stroke-width="2.09963" stroke-miterlimit="10" stroke-linecap="round"/>
<path d="M42.2533 29.0479C41.9678 30.1733 41.4135 32.3527 40.8634 34.5069C40.7106 35.081 40.5141 35.6426 40.2755 36.1866C39.2131 38.7062 39.0409 41.3224 38.9527 43.9973C38.8309 47.6843 38.3774 51.3376 37.0336 54.8146C36.7571 55.5358 36.4022 56.2243 35.9754 56.868C34.1319 59.6689 30.5163 59.7823 28.6309 57.0024C27.8722 55.7672 27.2913 54.4313 26.905 53.0341C26.3087 51.1528 25.9224 49.2044 25.3975 47.2979C25.2157 46.6756 24.9531 46.0798 24.6164 45.5258C23.5833 43.8041 21.4501 43.6152 20.3289 45.2781C19.5725 46.5117 18.973 47.8349 18.5442 49.217C17.7338 51.514 17.0619 53.8614 16.2808 56.1668C16.0759 56.6847 15.7833 57.1634 15.4158 57.5819C13.8494 59.5388 11.2795 59.606 9.62499 57.7247C8.28082 56.1279 7.40832 54.188 7.10543 52.1229C6.5533 49.086 6.16361 46.0217 5.93802 42.9433C5.8124 40.7246 5.40171 38.5314 4.71604 36.4176C3.87619 33.9317 3.03633 31.4079 2.69619 28.8337C2.12509 24.3951 4.17853 20.9727 7.78571 18.512C9.82655 17.1178 12.1319 17.29 14.4037 17.9325C15.5669 18.26 16.7217 18.6044 17.8556 19.0159C20.6952 20.0811 23.8214 20.1004 26.674 19.0704C28.1018 18.5833 29.5631 18.1634 31.0287 17.8107C33.8212 17.1136 36.2735 17.8107 38.4194 19.7255C40.9431 21.9848 42.2659 24.7478 42.2533 29.0479Z" stroke="#FFFFFF" stroke-width="2.3432" stroke-miterlimit="10" stroke-linecap="round"/>
<g clip-path="url(#clip0_6510_13840)">
<path d="M44.6343 22.0231C43.6234 18.0028 41.1559 15.5295 37.0312 14.5068C38.9253 14.1841 40.6685 13.2698 42.0108 11.895C43.386 10.5499 44.2947 8.80002 44.6038 6.90137C45.6218 11.0413 48.1011 13.524 52.1248 14.5244C48.128 15.5189 45.63 18.0005 44.6343 22.0231Z" fill="#D6F4FF" stroke="#FFFFFF" stroke-width="1.45775" stroke-miterlimit="10"/>
</g>
<g clip-path="url(#clip1_6510_13840)">
<path d="M49.3734 30.6258C48.6995 27.9457 47.0544 26.2967 44.3047 25.615C45.5674 25.3998 46.7295 24.7903 47.6244 23.8738C48.5412 22.977 49.147 21.8104 49.3531 20.5447C50.0317 23.3046 51.6846 24.9598 54.3671 25.6267C51.7025 26.2897 50.0372 27.9441 49.3734 30.6258Z" fill="#D6F4FF" stroke="#FFFFFF" stroke-width="1.45775" stroke-miterlimit="10"/>
</g>
<g clip-path="url(#clip2_6510_13840)">
<path d="M55.7594 23.0727C55.244 21.0229 53.9859 19.7618 51.8828 19.2404C52.8485 19.0758 53.7374 18.6096 54.4218 17.9087C55.1229 17.2228 55.5862 16.3306 55.7439 15.3625C56.2629 17.4734 57.527 18.7393 59.5786 19.2493C57.5408 19.7564 56.2671 21.0217 55.7594 23.0727Z" fill="#D6F4FF" stroke="#FFFFFF" stroke-width="1.45775" stroke-miterlimit="10"/>
</g>
<defs>
<clipPath id="clip0_6510_13840">
<rect width="17.7054" height="17.7663" fill="white" transform="translate(35.6328 5.4668)"/>
</clipPath>
<clipPath id="clip1_6510_13840">
<rect width="11.8036" height="11.8442" fill="white" transform="translate(43.375 19.5884)"/>
</clipPath>
<clipPath id="clip2_6510_13840">
<rect width="9.02748" height="9.05857" fill="white" transform="translate(51.1719 14.6313)"/>
</clipPath>
</defs>
</svg>