<svg width="90" height="90" viewBox="0 0 90 90" fill="none" xmlns="http://www.w3.org/2000/svg">
<g clip-path="url(#clip0_9476_8391)">
<g clip-path="url(#clip1_9476_8391)">
<path d="M54.0307 90C52.2234 90 49.3547 88.4232 49.3547 84.1935C49.3547 83.4441 49.5905 82.4407 49.8881 81.1724C50.2819 79.4939 50.7718 77.4072 50.8063 75.4566C50.8879 71.1798 50.1549 68.224 48.6307 66.6708C47.7397 65.7635 46.553 65.3226 44.9998 65.3226C43.4466 65.3226 42.2599 65.7635 41.369 66.6708C39.8448 68.224 39.1117 71.1798 39.1934 75.4548C39.2297 77.4054 39.7196 79.4939 40.1115 81.1705C40.4091 82.4389 40.645 83.4405 40.645 84.1917C40.645 88.4214 37.7762 89.9982 35.969 89.9982C31.5162 89.9982 28.5621 86.4653 27.1922 79.4957C26.118 74.0341 26.1252 67.3675 26.1289 62.0111V60.9659C26.1289 57.629 25.0166 54.8492 23.8389 51.9079C23.2293 50.3873 22.5996 48.8141 22.0861 47.0867C21.1952 44.1109 20.3242 40.8266 20.3242 36.2885C20.3242 31.2877 21.9391 27.6206 25.1218 25.3887C27.8091 23.5052 30.8865 23.224 32.4815 23.224C34.0764 23.224 36.2557 23.8464 38.3351 24.4833C39.1008 24.7173 39.5327 25.5302 39.2986 26.296C39.0645 27.0635 38.2516 27.4935 37.4859 27.2595C35.6986 26.7115 33.6899 26.1272 32.4833 26.1272C29.0266 26.1272 23.2274 27.4482 23.2274 36.2885C23.2274 40.4365 24.0041 43.3706 24.8678 46.2556C25.345 47.8579 25.9492 49.3675 26.5353 50.8282C27.7637 53.8966 29.0339 57.0683 29.0339 60.9659V62.0147C29.0285 67.2441 29.0212 73.7528 30.041 78.9351C31.645 87.0949 34.9002 87.0949 35.9708 87.0949C35.9889 87.0949 37.7436 87.0151 37.7436 84.1917C37.7436 83.778 37.5113 82.7891 37.2881 81.8347C36.8635 80.0238 36.3337 77.7683 36.2938 75.5093C36.1958 70.356 37.1793 66.7978 39.3004 64.6367C40.7448 63.1651 42.6645 62.4175 45.0035 62.4175C47.3424 62.4175 49.2621 63.1633 50.7065 64.6367C52.8276 66.7978 53.8111 70.3542 53.7131 75.5093C53.6714 77.7665 53.1434 80.022 52.7188 81.8328C52.4938 82.7891 52.2633 83.7762 52.2633 84.1899C52.2633 87.0133 54.0198 87.0931 54.0361 87.0931C55.1049 87.0931 58.3601 87.0931 59.966 78.9333C60.9857 73.751 60.9785 67.2423 60.9748 62.0129V60.9641C60.9748 57.0665 62.245 53.8947 63.4734 50.8264C64.0577 49.3657 64.6637 47.856 65.1391 46.2556C66.0047 43.3687 66.7795 40.4347 66.7795 36.2867C66.7795 27.4464 60.9803 26.1254 57.5236 26.1254C56.5583 26.1254 55.1067 26.5046 54.0996 26.7877C53.3285 27.0054 52.5264 26.5572 52.3087 25.7861C52.091 25.0149 52.5391 24.2129 53.3103 23.9952C55.201 23.4617 56.5002 23.2222 57.5236 23.2222C59.1186 23.2222 62.196 23.5034 64.8833 25.3869C68.0678 27.6187 69.6809 31.2859 69.6809 36.2867C69.6809 40.8248 68.8099 44.1109 67.919 47.0867C67.4055 48.8123 66.7758 50.3855 66.1662 51.906C64.9885 54.8474 63.8744 57.6254 63.8744 60.9641V62.0093C63.8799 67.3657 63.8871 74.0322 62.8129 79.4939C61.443 86.4635 58.4889 89.9964 54.0361 89.9964L54.0307 90Z" fill="#FFFFFF"/>
<path d="M62.4204 62.4192C61.6183 62.4192 60.9688 61.7696 60.9688 60.9675C60.9688 57.4764 64.2984 53.7095 69.6784 53.7095C70.9903 53.7095 72.656 54.2992 74.9587 55.1157C78.4698 56.3605 83.2764 58.0643 88.5494 58.0643C89.3514 58.0643 90.001 58.7139 90.001 59.5159C90.001 60.3179 89.3514 60.9675 88.5494 60.9675C82.7774 60.9675 77.6986 59.1675 73.9897 57.852C72.1915 57.2151 70.4913 56.6127 69.6784 56.6127C66.0911 56.6127 63.872 58.8736 63.872 60.9675C63.872 61.7696 63.2224 62.4192 62.4204 62.4192Z" fill="#FFFFFF"/>
<path d="M27.5806 62.4192C26.7786 62.4192 26.129 61.7696 26.129 60.9675C26.129 58.8736 23.9099 56.6127 20.3226 56.6127C19.5097 56.6127 17.8113 57.2151 16.0113 57.852C12.3024 59.1675 7.22177 60.9675 1.45161 60.9675C0.649597 60.9675 0 60.3179 0 59.5159C0 58.7139 0.649597 58.0643 1.45161 58.0643C6.7246 58.0643 11.5313 56.3605 15.0423 55.1157C17.3468 54.2992 19.0107 53.7095 20.3226 53.7095C25.7026 53.7095 29.0323 57.4764 29.0323 60.9675C29.0323 61.7696 28.3827 62.4192 27.5806 62.4192Z" fill="#FFFFFF"/>
<path d="M56.6143 80.9274C56.5834 80.9274 56.5526 80.9274 56.5217 80.9238C55.9501 80.8766 55.5147 80.3939 55.5237 79.8205C55.6925 70.0603 54.5076 64.2284 51.7913 61.4649C50.2417 59.8881 48.0824 59.1532 44.9977 59.1532C42.8729 59.1532 41.1909 59.5034 39.8536 60.2256C39.3237 60.5105 38.6633 60.3127 38.3784 59.7847C38.0935 59.2548 38.2913 58.5943 38.8193 58.3095C40.4814 57.4131 42.5028 56.9776 44.9959 56.9776C48.6522 56.9776 51.383 57.9466 53.3409 59.9407C54.8124 61.4377 55.8903 63.5462 56.607 66.4149C56.5961 65.4006 56.5616 64.5169 56.529 63.7095C56.4782 62.4248 56.4364 61.3143 56.5127 60.2147C56.6741 57.9212 57.1822 55.8109 57.6286 53.9492C58.0532 52.1837 58.4197 50.6576 58.4197 49.3566C58.4197 46.2284 56.8883 46.0905 53.702 46.0905C52.3846 46.0905 51.0364 46.428 49.612 46.7836C48.1205 47.1556 46.5782 47.5421 44.9923 47.5421C44.486 47.5421 43.9616 47.504 43.3901 47.4242C42.7949 47.3407 42.3794 46.7909 42.461 46.1957C42.5445 45.6006 43.0943 45.1851 43.6895 45.2667C44.1594 45.332 44.5858 45.3647 44.9923 45.3647C46.3096 45.3647 47.6578 45.0272 49.0822 44.6716C50.5737 44.2996 52.1161 43.9131 53.702 43.9131C55.2878 43.9131 56.8629 43.9131 58.1802 44.5718C59.7842 45.3738 60.5971 46.9833 60.5971 49.3566C60.5971 50.9171 60.1834 52.6373 59.7443 54.4591C59.2961 56.3244 58.8316 58.255 58.6828 60.3671C58.6139 61.347 58.6538 62.3522 58.7028 63.6242C58.828 66.8468 59.0004 71.2615 57.6812 80.0038C57.5995 80.5409 57.1387 80.931 56.6052 80.931L56.6143 80.9274Z" fill="#FFFFFF"/>
<path d="M32.1291 59.1532C31.6048 59.1532 31.1439 58.7739 31.0568 58.2405C30.8408 56.9159 30.5396 55.6657 30.2493 54.4572C29.8102 52.6354 29.3965 50.9153 29.3965 49.3548C29.3965 46.1395 30.8281 44.3939 33.7731 44.0165C34.3701 43.9403 34.9144 44.3612 34.9906 44.9582C35.0668 45.5552 34.6459 46.0995 34.0489 46.1758C32.4812 46.3772 31.5721 46.9614 31.5721 49.3548C31.5721 50.6558 31.9386 52.1818 32.3632 53.9473C32.6626 55.1957 32.9747 56.4858 33.2033 57.8885C33.2995 58.4818 32.8985 59.0407 32.3052 59.1387C32.2453 59.1477 32.1872 59.1532 32.1273 59.1532H32.1291Z" fill="#FFFFFF"/>
<path d="M33.3855 81.2903C32.6161 81.2903 31.9756 80.6878 31.9375 79.9112C31.9248 79.6608 31.649 73.6493 33.0843 63.8274C34.4034 54.7965 37.4917 40.7141 44.7099 24.9042C45.0419 24.1747 45.9038 23.8536 46.6333 24.1856C47.3627 24.5177 47.6839 25.3796 47.3518 26.109C40.2951 41.5669 37.2685 55.33 35.9712 64.154C34.5649 73.7219 34.8335 79.7098 34.8371 79.7697C34.8752 80.5699 34.2583 81.2903 33.4581 81.2903C33.4345 81.2903 33.4091 81.2903 33.3855 81.2903Z" fill="#FFFFFF"/>
<path d="M52.2586 21.7743C52.079 21.7743 51.8975 21.7416 51.7197 21.6708L44.4617 18.7676C43.734 18.4773 43.3693 17.6608 43.636 16.9241L49.4425 0.956317C49.7165 0.203293 50.5494 -0.185014 51.3024 0.0889782C52.0554 0.36297 52.4437 1.19583 52.1697 1.94886L46.8441 16.5956L51.4621 18.4428L58.6748 0.900067C58.9796 0.15793 59.827 -0.195901 60.5691 0.108938C61.3113 0.413777 61.6651 1.26297 61.3602 2.00329L53.6014 20.8743C53.3709 21.4349 52.8302 21.7743 52.2586 21.7743Z" fill="#FFFFFF"/>
<path d="M47.9048 27.5805C47.7524 27.5805 47.5982 27.5569 47.4458 27.5061L43.0909 26.0545C42.7117 25.9275 42.4014 25.6517 42.2327 25.2888C42.0639 24.9259 42.053 24.5104 42.2018 24.1402L44.9018 17.3757C45.1994 16.6317 46.0432 16.2688 46.7889 16.5664C47.5329 16.864 47.8958 17.7077 47.5982 18.4535L45.468 23.79L47.0647 24.3216L49.1551 19.0904C49.4526 18.3464 50.2964 17.9835 51.0421 18.2811C51.7861 18.5787 52.149 19.4225 51.8514 20.1682L49.253 26.6714C49.028 27.2358 48.4837 27.5841 47.9048 27.5841V27.5805Z" fill="#FFFFFF"/>
</g>
</g>
<defs>
<clipPath id="clip0_9476_8391">
<rect width="90" height="90" fill="white"/>
</clipPath>
<clipPath id="clip1_9476_8391">
<rect width="90" height="90" fill="white"/>
</clipPath>
</defs>
</svg>