<svg width="45" height="61" viewBox="0 0 45 61" fill="none" xmlns="http://www.w3.org/2000/svg">
<path opacity="0.5" d="M32.8165 22.0183H10.0398C9.48928 22.0183 9.04297 22.4646 9.04297 23.0152V25.5053C9.04297 26.0558 9.48928 26.5021 10.0398 26.5021H32.8165C33.367 26.5021 33.8133 26.0558 33.8133 25.5053V23.0152C33.8133 22.4646 33.367 22.0183 32.8165 22.0183Z" fill="white"/>
<path opacity="0.5" d="M31.9787 22.0183H11.0906C10.5401 22.0183 10.0938 22.4646 10.0938 23.0152V25.5053C10.0938 26.0558 10.5401 26.5021 11.0906 26.5021H31.9787C32.5292 26.5021 32.9755 26.0558 32.9755 25.5053V23.0152C32.9755 22.4646 32.5292 22.0183 31.9787 22.0183Z" fill="#D6F4FF"/>
<path opacity="0.5" d="M27.3056 54.1959C27.2393 54.3771 27.1562 54.5517 27.0575 54.7175C26.8051 55.1408 26.4871 55.5213 26.1153 55.8448L23.7009 58.032C23.0934 58.5832 22.3025 58.8886 21.4821 58.8886C20.6618 58.8886 19.8709 58.5832 19.2634 58.032C18.6661 57.4936 18.0716 56.9524 17.4799 56.4084C16.8517 55.9007 16.3153 55.2889 15.8942 54.5997C15.3694 53.5522 15.1772 52.3693 15.3432 51.2095C15.5114 49.5018 15.5451 43.4448 15.5072 34.5066C15.5072 33.7369 15.5072 32.942 15.5072 32.1302C15.5072 30.3762 15.5072 28.5254 15.4694 26.5906H27.5748C27.5748 27.4963 27.5748 28.3824 27.5748 29.2489C27.5748 29.5896 27.5748 29.9261 27.5748 30.2584C27.537 42.4564 27.5454 50.6501 27.6463 51.6344C27.7238 52.5029 27.6075 53.3778 27.3056 54.1959Z" fill="#D6F4FF"/>
<path d="M29.884 48.5847L17.8711 54.6711" stroke="#FFFFFF" stroke-width="2.1031" stroke-miterlimit="10"/>
<path d="M34.5152 22.439H13.3958C12.3876 22.439 11.5703 23.2563 11.5703 24.2645V25.0973C11.5703 26.1055 12.3876 26.9228 13.3958 26.9228H34.5152C35.5234 26.9228 36.3407 26.1055 36.3407 25.0973V24.2645C36.3407 23.2563 35.5234 22.439 34.5152 22.439Z" stroke="#FFFFFF" stroke-width="2.1031" stroke-miterlimit="10"/>
<path opacity="0.5" d="M39.797 21.9552H2.40799C0.304884 12.3734 -0.746677 6.07253 2.95058 2.96414C5.57526 0.755881 10.139 0.553997 13.3441 1.66444C17.4915 3.09875 18.0593 6.24082 21.1424 6.21137C24.2256 6.18193 24.5074 3.15764 28.9365 1.66444C31.5528 0.781132 35.5066 0.579251 38.0346 2.31221C42.4805 5.36592 41.3491 13.6227 39.797 21.9552Z" fill="white"/>
<path d="M42.3204 22.3758H4.93143C2.82832 12.7941 1.77676 6.49318 5.47402 3.38479C8.09869 1.17654 12.6624 0.974651 15.8676 2.08509C20.0149 3.51941 20.5827 6.66147 23.6659 6.63203C26.749 6.60258 27.0308 3.57829 31.46 2.08509C34.0762 1.20179 38.0301 0.999905 40.558 2.73286C45.004 5.78657 43.8725 14.0433 42.3204 22.3758Z" stroke="#FFFFFF" stroke-width="2.1031" stroke-miterlimit="10"/>
<path d="M20.7383 5.40381C23.9163 7.76635 27.8328 8.91774 31.7838 8.65099" stroke="#FFFFFF" stroke-width="2.1031" stroke-miterlimit="10" stroke-linecap="round"/>
<path d="M29.8255 54.6164C29.7591 54.7976 29.676 54.9722 29.5773 55.138C29.3249 55.5613 29.0069 55.9418 28.6351 56.2653L25.6908 58.9278C25.2268 59.3475 24.6234 59.5798 23.9978 59.5798C23.3721 59.5798 22.7688 59.3475 22.3048 58.9278C21.535 58.2253 20.7611 57.5271 19.9956 56.8247C19.3673 56.317 18.831 55.7052 18.4098 55.016C17.8851 53.9684 17.6928 52.7856 17.8588 51.6258C18.0271 49.9181 18.0607 43.8611 18.0229 34.923C18.0229 34.1532 18.0229 33.3582 18.0229 32.5464C18.0229 30.7924 18.0018 28.9417 17.985 27.0068H30.0905C30.0905 27.9126 30.0905 28.7987 30.0905 29.6652C30.0905 30.0059 30.0905 30.3423 30.0905 30.6746C30.0526 42.8726 30.061 51.0664 30.162 52.0506C30.2414 52.9203 30.1265 53.7967 29.8255 54.6164Z" stroke="#FFFFFF" stroke-width="2.1031" stroke-miterlimit="10"/>
<path d="M29.884 31.6379L17.8711 37.7285" stroke="#FFFFFF" stroke-width="2.1031" stroke-miterlimit="10"/>
<path d="M24.7132 26.7751L17.6836 30.6805" stroke="#FFFFFF" stroke-width="2.1031" stroke-miterlimit="10"/>
<path d="M29.884 40.6309L17.8711 46.7172" stroke="#FFFFFF" stroke-width="2.1031" stroke-miterlimit="10"/>
</svg>