<svg width="88" height="39" viewBox="0 0 88 39" fill="none" xmlns="http://www.w3.org/2000/svg">
<g opacity="0.5">
<path d="M19.4853 17.3215H15.4464C14.4922 17.3215 13.7188 18.095 13.7188 19.0491V21.3605C13.7188 22.3147 14.4922 23.0881 15.4464 23.0881H19.4853C20.4395 23.0881 21.213 22.3147 21.213 21.3605V19.0491C21.213 18.095 20.4395 17.3215 19.4853 17.3215Z" fill="#EFFBFF"/>
<path d="M45.126 17.3215H41.087C40.1329 17.3215 39.3594 18.095 39.3594 19.0491V21.3605C39.3594 22.3147 40.1329 23.0881 41.087 23.0881H45.126C46.0801 23.0881 46.8536 22.3147 46.8536 21.3605V19.0491C46.8536 18.095 46.0801 17.3215 45.126 17.3215Z" fill="#EFFBFF"/>
<path d="M70.7588 17.3215H66.7198C65.7657 17.3215 64.9922 18.095 64.9922 19.0491V21.3605C64.9922 22.3147 65.7657 23.0881 66.7198 23.0881H70.7588C71.7129 23.0881 72.4864 22.3147 72.4864 21.3605V19.0491C72.4864 18.095 71.7129 17.3215 70.7588 17.3215Z" fill="#EFFBFF"/>
<path d="M18.4478 1.54053C19.8914 1.54053 21.3209 1.82487 22.6546 2.37731C23.9883 2.92975 25.2002 3.73947 26.2209 4.76025C27.2417 5.78103 28.0515 6.99287 28.6039 8.32658C29.1563 9.66029 29.4407 11.0897 29.4407 12.5333V28.5157C29.4407 30.1895 28.7758 31.7947 27.5922 32.9782C26.4087 34.1617 24.8035 34.8266 23.1298 34.8266H12.7286C11.7444 34.8266 10.7699 34.6328 9.86067 34.2562C8.95144 33.8796 8.12528 33.3275 7.42938 32.6316C6.73348 31.9357 6.18146 31.1096 5.80484 30.2003C5.42822 29.2911 5.23437 28.3166 5.23438 27.3324V14.754C5.23438 11.2496 6.6265 7.88867 9.10451 5.41066C11.5825 2.93266 14.9434 1.54053 18.4478 1.54053Z" fill="white"/>
<path d="M73.0997 34.8304H62.6827C61.009 34.8304 59.4038 34.1655 58.2203 32.982C57.0367 31.7985 56.3718 30.1933 56.3718 28.5195V12.5332C56.3718 9.61769 57.53 6.82163 59.5916 4.76007C61.6531 2.69852 64.4492 1.54035 67.3647 1.54035C70.8691 1.54035 74.23 2.93248 76.708 5.41049C79.186 7.88849 80.5781 11.2494 80.5781 14.7538V27.352C80.5781 29.3396 79.7886 31.2458 78.3831 32.6512C76.9777 34.0566 75.0715 34.8462 73.0839 34.8462L73.0997 34.8304Z" fill="white"/>
<path d="M42.6188 1C46.2917 1 49.8141 2.45904 52.4112 5.05613C55.0083 7.65323 56.4673 11.1757 56.4673 14.8485V29.1624C56.4673 30.808 55.8136 32.3861 54.6501 33.5496C53.4865 34.7132 51.9084 35.3669 50.2629 35.3669H35.7044C34.0589 35.3669 32.4808 34.7132 31.3172 33.5496C30.1537 32.3861 29.5 30.808 29.5 29.1624V14.1188C29.5 10.6395 30.8822 7.30266 33.3424 4.84241C35.8027 2.38216 39.1395 1 42.6188 1Z" fill="white"/>
</g>
<path opacity="0.5" d="M71.5744 18.1831H67.3527C66.3554 18.1831 65.5469 18.9916 65.5469 19.9889V22.4049C65.5469 23.4022 66.3554 24.2107 67.3527 24.2107H71.5744C72.5717 24.2107 73.3802 23.4022 73.3802 22.4049V19.9889C73.3802 18.9916 72.5717 18.1831 71.5744 18.1831Z" fill="#EFFBFF"/>
<path opacity="0.5" d="M44.2385 18.1831H40.0167C39.0194 18.1831 38.2109 18.9916 38.2109 19.9889V22.4049C38.2109 23.4022 39.0194 24.2107 40.0167 24.2107H44.2385C45.2358 24.2107 46.0443 23.4022 46.0443 22.4049V19.9889C46.0443 18.9916 45.2358 18.1831 44.2385 18.1831Z" fill="#EFFBFF"/>
<path opacity="0.5" d="M17.6838 18.1831H13.462C12.4647 18.1831 11.6562 18.9916 11.6562 19.9889V22.4049C11.6562 23.4022 12.4647 24.2107 13.462 24.2107H17.6838C18.6811 24.2107 19.4896 23.4022 19.4896 22.4049V19.9889C19.4896 18.9916 18.6811 18.1831 17.6838 18.1831Z" fill="#EFFBFF"/>
<path d="M19.4807 18.8411H15.2589C14.2616 18.8411 13.4531 19.6495 13.4531 20.6469V23.0628C13.4531 24.0601 14.2616 24.8686 15.2589 24.8686H19.4807C20.478 24.8686 21.2865 24.0601 21.2865 23.0628V20.6469C21.2865 19.6495 20.478 18.8411 19.4807 18.8411Z" stroke="#FFFFFF" stroke-width="2.06141" stroke-miterlimit="10"/>
<path d="M46.2854 18.8411H42.0636C41.0663 18.8411 40.2578 19.6495 40.2578 20.6469V23.0628C40.2578 24.0601 41.0663 24.8686 42.0636 24.8686H46.2854C47.2827 24.8686 48.0912 24.0601 48.0912 23.0628V20.6469C48.0912 19.6495 47.2827 18.8411 46.2854 18.8411Z" stroke="#FFFFFF" stroke-width="2.06141" stroke-miterlimit="10"/>
<path d="M75.0938 22.1392H86.6376" stroke="#FFFFFF" stroke-width="2.06141" stroke-miterlimit="10" stroke-linecap="round"/>
<path d="M1.5 22.1392H13.0439" stroke="#FFFFFF" stroke-width="2.06141" stroke-miterlimit="10" stroke-linecap="round"/>
<path d="M22.3203 22.1392H39.2238" stroke="#FFFFFF" stroke-width="2.06141" stroke-miterlimit="10" stroke-linecap="round"/>
<path d="M73.0822 18.8411H68.8605C67.8632 18.8411 67.0547 19.6495 67.0547 20.6469V23.0628C67.0547 24.0601 67.8632 24.8686 68.8605 24.8686H73.0822C74.0795 24.8686 74.888 24.0601 74.888 23.0628V20.6469C74.888 19.6495 74.0795 18.8411 73.0822 18.8411Z" stroke="#FFFFFF" stroke-width="2.06141" stroke-miterlimit="10"/>
<path d="M49.1172 22.1392H66.0207" stroke="#FFFFFF" stroke-width="2.06141" stroke-miterlimit="10" stroke-linecap="round"/>
<path d="M18.4052 2.3457C19.9141 2.3457 21.4083 2.64291 22.8023 3.22035C24.1964 3.79779 25.4631 4.64416 26.53 5.71113C27.597 6.7781 28.4434 8.04478 29.0208 9.43884C29.5983 10.8329 29.8955 12.3271 29.8955 13.836V30.5416C29.8955 32.2911 29.2005 33.969 27.9634 35.2061C26.7263 36.4431 25.0485 37.1381 23.299 37.1381H12.4271C11.3984 37.1381 10.3798 36.9355 9.4294 36.5418C8.47902 36.1482 7.61548 35.5712 6.88808 34.8438C6.16069 34.1164 5.58369 33.2529 5.19003 32.3025C4.79637 31.3521 4.59375 30.3335 4.59375 29.3048V16.1571C4.59375 12.4941 6.04888 8.98112 8.63902 6.39098C11.2292 3.80083 14.7422 2.3457 18.4052 2.3457Z" stroke="#FFFFFF" stroke-width="2.06141"/>
<path d="M75.5191 37.1422H64.6307C62.8812 37.1422 61.2034 36.4472 59.9663 35.2101C58.7292 33.973 58.0342 32.2952 58.0342 30.5457V13.8359C58.0342 10.7885 59.2448 7.86593 61.3997 5.71108C63.5545 3.55624 66.4771 2.34566 69.5245 2.34566C73.1875 2.34566 76.7005 3.80078 79.2907 6.39093C81.8808 8.98107 83.3359 12.4941 83.3359 16.1571V29.3253C83.3359 31.4029 82.5106 33.3953 81.0416 34.8644C79.5726 36.3334 77.5801 37.1587 75.5026 37.1587L75.5191 37.1422Z" stroke="#FFFFFF" stroke-width="2.06141"/>
<path d="M43.6656 1.78076C47.5047 1.78076 51.1865 3.30582 53.9011 6.02045C56.6157 8.73508 58.1408 12.4169 58.1408 16.256V31.2177C58.1408 32.9376 57.4575 34.5872 56.2413 35.8034C55.0251 37.0196 53.3756 37.7028 51.6556 37.7028H36.4383C34.7183 37.7028 33.0688 37.0196 31.8526 35.8034C30.6364 34.5872 29.9531 32.9376 29.9531 31.2177V15.4932C29.9531 11.8565 31.3978 8.36864 33.9694 5.79705C36.541 3.22546 40.0288 1.78076 43.6656 1.78076Z" stroke="#FFFFFF" stroke-width="2.06141"/>
</svg>