<svg width="57" height="70" viewBox="0 0 57 70" fill="none" xmlns="http://www.w3.org/2000/svg">
<path d="M46.1517 34.5972C45.8662 35.7226 45.3119 37.902 44.7618 40.0563C44.6091 40.6304 44.4125 41.1919 44.1739 41.736C43.1115 44.2555 42.9393 46.8717 42.8511 49.5466C42.7293 53.2336 42.2758 56.8869 40.9321 60.3639C40.6555 61.0851 40.3006 61.7736 39.8739 62.4173C38.0304 65.2182 34.4148 65.3317 32.5293 62.5517C31.7707 61.3165 31.1897 59.9806 30.8034 58.5834C30.2071 56.7021 29.8208 54.7537 29.2959 52.8472C29.1141 52.2249 28.8515 51.6291 28.5148 51.0751C27.4818 49.3534 25.3486 49.1645 24.2274 50.8274C23.471 52.061 22.8714 53.3842 22.4427 54.7663C21.6322 57.0633 20.9603 59.4107 20.1793 61.7161C19.9744 62.234 19.6817 62.7127 19.3142 63.1312C17.7479 65.0881 15.1779 65.1553 13.5234 63.274C12.1793 61.6772 11.3068 59.7373 11.0039 57.6722C10.4517 54.6353 10.062 51.5711 9.83646 48.4926C9.71084 46.274 9.30015 44.0807 8.61448 41.9669C7.77463 39.481 6.93477 36.9572 6.59463 34.383C6.02353 29.9444 8.07697 26.522 11.6841 24.0613C13.725 22.6671 16.0304 22.8393 18.3022 23.4818C19.4654 23.8093 20.6202 24.1537 21.754 24.5652C24.5937 25.6304 27.7198 25.6497 30.5725 24.6198C32.0002 24.1326 33.4616 23.7127 34.9271 23.36C37.7196 22.6629 40.172 23.36 42.3178 25.2749C44.8416 27.5341 46.1643 30.2972 46.1517 34.5972Z" stroke="#FFFFFF" stroke-width="2.3432" stroke-miterlimit="10" stroke-linecap="round"/>
<path d="M22.7266 24.96C23.5922 25.1557 24.4362 25.437 25.2461 25.7998C26.2063 26.2556 27.1252 26.7937 27.9924 27.4081C29.0549 28.0506 30.8186 28.6091 33.8336 28.059" stroke="#FFFFFF" stroke-width="2.09963" stroke-miterlimit="10" stroke-linecap="round"/>
<path d="M49.8968 34.8101L55.5 40.3333L49.8968 34.8101ZM53.1221 27.1223C53.1221 33.0813 48.2819 37.9117 42.3109 37.9117C36.3403 37.9117 31.5 33.0813 31.5 27.1223C31.5 21.1637 36.3403 16.3333 42.3109 16.3333C48.2819 16.3333 53.1221 21.1637 53.1221 27.1223Z" fill="#F0FBFF" fill-opacity="0.8"/>
<path d="M49.8968 34.8101L55.5 40.3333M53.1221 27.1223C53.1221 33.0813 48.2819 37.9117 42.3109 37.9117C36.3403 37.9117 31.5 33.0813 31.5 27.1223C31.5 21.1637 36.3403 16.3333 42.3109 16.3333C48.2819 16.3333 53.1221 21.1637 53.1221 27.1223Z" stroke="#FFFFFF" stroke-width="2" stroke-linecap="round"/>
</svg>