<svg width="62" height="62" viewBox="0 0 62 62" fill="none" xmlns="http://www.w3.org/2000/svg">
<path d="M14.8633 41.7401C16.1967 51.0744 37.0877 61.2976 46.422 41.7401H14.8633Z" stroke="#FFFFFF" stroke-width="2.37061"/>
<path d="M27.0117 41.4438V45.2961C27.0117 45.7871 27.4097 46.1851 27.9007 46.1851H33.2346C33.7255 46.1851 34.1235 45.787 34.1235 45.2961V42.1212" stroke="#FFFFFF" stroke-width="2.37061"/>
<path d="M60.1585 30.8039C60.1575 37.6801 57.7369 44.3367 53.3209 49.6075C48.9049 54.8783 42.7751 58.4272 36.0053 59.6325C29.2355 60.8377 22.2575 59.6223 16.2938 56.1994C10.33 52.7765 5.76089 47.3642 3.38681 40.9109C1.01274 34.4575 0.985137 27.3745 3.30884 20.9028C5.63254 14.4311 10.1593 8.98342 16.0962 5.51412C22.0331 2.04482 29.0014 0.775178 35.7804 1.92759C42.5594 3.07999 48.7167 6.58095 53.1736 11.8172C57.683 17.1157 60.1591 23.8463 60.1585 30.8039Z" stroke="#FFFFFF" stroke-width="2.50353" stroke-miterlimit="10"/>
<path d="M6.66406 14.0105C11.6108 12.4484 22.9102 10.2614 28.5339 14.0105C35.5635 18.6969 40.2499 24.5549 49.2321 26.1171C56.4179 27.3668 59.5161 26.6378 60.167 26.1171" stroke="#FFFFFF" stroke-width="2.50722"/>
</svg>